<?xml version="1.0" encoding="utf-8"?>
<!-- Generator: Adobe Illustrator 26.0.1, SVG Export Plug-In . SVG Version: 6.00 Build 0)  -->
<svg version="1.1" id="Layer_1" xmlns="http://www.w3.org/2000/svg" xmlns:xlink="http://www.w3.org/1999/xlink" x="0px" y="0px"
	 viewBox="0 0 302.3 44" style="enable-background:new 0 0 302.3 44;" xml:space="preserve">
<style type="text/css">
	.st0{fill:#FFFFFF;}
	.st1{fill:#000001;}
</style>
<path id="Rectangle_147" class="st0" d="M3.9,0h294.6c2.1,0,3.9,1.8,3.9,4v36c0,2.2-1.8,4-3.9,4H3.9C1.8,44,0,42.2,0,40V4
	C0,1.8,1.8,0,3.9,0z"/>
<path id="_" class="st1" d="M22.1,15.3c1.3-0.1,2.5-0.8,3.4-1.9c0.8-0.9,1.3-2.3,1.3-3.6c0-0.1,0-0.4,0-0.5c-1.5,0.1-2.8,0.8-3.7,2
	c-0.8,0.9-1.3,2.1-1.3,3.4c0,0.1,0,0.3,0,0.4C22,15.3,22,15.3,22.1,15.3z M18.1,34.6c1.6,0,2.3-1.1,4.2-1.1s2.4,1.1,4.1,1.1
	s2.8-1.6,3.8-3c0.8-1.1,1.3-2.3,1.7-3.6c-2-0.9-3.3-2.9-3.3-5c0-2,1.1-3.7,2.6-4.8c-1.2-1.6-3-2.5-5-2.5c-1.9,0-3.4,1.2-4.4,1.2
	c-1.1,0-2.4-1.1-4.1-1.1c-3.2,0-6.4,2.6-6.4,7.5c0,2.9,0.9,5.8,2.6,8.3C15.5,33.2,16.7,34.6,18.1,34.6z"/>
<g>
	<path class="st1" d="M104.7,16.8h2.1l3.4,9.6h-2l-0.8-2.3H104l-0.8,2.3h-1.8L104.7,16.8z M104.3,22.6h2.5l-1.2-3.6h-0.1L104.3,22.6
		z"/>
	<path class="st1" d="M111.1,19.1h1.8v0.6h0.1c0.4-0.5,1.2-0.8,2.1-0.8c1.5,0,2.8,0.9,2.8,3.5v0.2c0,2.8-1.3,3.8-3.3,3.8
		c-0.8,0-1.3-0.2-1.6-0.4v2.4h-1.8L111.1,19.1L111.1,19.1z M116,22.9v-0.3c0-1.7-0.6-2.2-1.6-2.2c-0.7,0-1.1,0.2-1.4,0.4v4
		c0.3,0.2,0.8,0.4,1.3,0.4C115.4,25.1,116,24.6,116,22.9z"/>
	<path class="st1" d="M119.2,19.1h1.8v0.6h0.1c0.4-0.5,1.2-0.8,2.1-0.8c1.5,0,2.8,0.9,2.8,3.5v0.2c0,2.8-1.3,3.8-3.3,3.8
		c-0.8,0-1.3-0.2-1.6-0.4v2.4h-1.8L119.2,19.1L119.2,19.1z M124.1,22.9v-0.3c0-1.7-0.6-2.2-1.6-2.2c-0.7,0-1.1,0.2-1.4,0.4v4
		c0.3,0.2,0.8,0.4,1.3,0.4C123.4,25.1,124.1,24.6,124.1,22.9z"/>
	<path class="st1" d="M127.4,16.1h1.8v10.3h-1.8V16.1z"/>
	<path class="st1" d="M130.5,22.8v-0.2c0-2.4,1.4-3.7,3.4-3.7c2.2,0,3.1,1.2,3.1,3.6v0.7h-4.7c0.1,1.4,0.9,1.9,2.2,1.9
		c0.9,0,1.6-0.2,2.2-0.5v1.2c-0.5,0.3-1.4,0.7-2.6,0.7C131.8,26.5,130.5,25.1,130.5,22.8z M132.4,22h2.8c0-1.3-0.5-1.8-1.4-1.8
		C133.2,20.3,132.5,20.7,132.4,22z"/>
	<path class="st1" d="M144.6,23.2V25h4.7v1.5H138V25h4.7v-1.8h-3.3v-4.3h6.6v-1.2h-6.6v-1.5h8.5v4.2h-6.6v1.3h6.9v1.5H144.6z"/>
	<path class="st1" d="M154.7,25.5l-1.1-1.4c2.4-1.4,3.5-3.3,3.7-5.6h-3V17h4.8C159.2,20.8,157.8,23.6,154.7,25.5z M160.4,27.5v-4.1
		H159v-1.6h1.4v-1.5h-1.3v-1.6h1.3v-2.9h1.7v11.7H160.4z M162.8,28V15.6h1.7v12.5h-1.7V28z"/>
	<path class="st1" d="M166.1,23v-1.4h4.7V20h1.8v1.6h4.7V23H166.1z M167.3,20.7l-0.7-1.4c2.2-0.2,4.2-1.3,4.2-3.2v-0.4h1.9v0.4
		c0,1.8,1.9,2.8,4.2,3.1l-0.7,1.4c-1.7-0.2-3.7-1.1-4.4-2.5C171,19.6,169,20.5,167.3,20.7z M175.9,23.8v4.3h-1.8v-2.9h-6.7v-1.5
		L175.9,23.8L175.9,23.8z"/>
	<path class="st1" d="M178.2,20v-1.5h7.3V20H178.2z M181.9,20.4c1.7,0,3.1,1.1,3.1,2.7s-1.4,2.7-3.1,2.7c-1.7,0-3-1.1-3-2.7
		S180.2,20.4,181.9,20.4z M180,16.3h3.9v1.5H180V16.3z M181.9,24.4c0.8,0,1.4-0.5,1.4-1.4c0-0.8-0.6-1.4-1.4-1.4
		c-0.8,0-1.4,0.5-1.4,1.4S181.1,24.4,181.9,24.4z M188.1,20.6h1.7v1.5h-1.7V28h-1.8V15.6h1.8V20.6z"/>
	<path class="st1" d="M191.4,25.9l-1.1-1.5c2.7-1.3,4.5-3.7,4.7-6.1h-4v-1.5h5.9C197,20.5,195.5,23.7,191.4,25.9z M199,28V15.6h1.9
		v12.5H199V28z"/>
</g>
</svg>
