<?xml version="1.0" encoding="utf-8"?>
<!-- Generator: Adobe Illustrator 26.0.1, SVG Export Plug-In . SVG Version: 6.00 Build 0)  -->
<svg version="1.1" id="Layer_1" xmlns="http://www.w3.org/2000/svg" xmlns:xlink="http://www.w3.org/1999/xlink" x="0px" y="0px"
	 viewBox="0 0 302.3 44" style="enable-background:new 0 0 302.3 44;" xml:space="preserve">
<style type="text/css">
	.st0{fill:#FFFFFF;}
	.st1{fill:#4285F4;}
	.st2{fill:#34A853;}
	.st3{fill:#FBBC05;}
	.st4{fill:#EA4335;}
	.st5{fill:#010101;}
</style>
<path id="Rectangle_147" class="st0" d="M3.9,0h294.5c2.1,0,3.9,1.8,3.9,4v36c0,2.2-1.8,4-3.9,4H3.9C1.8,44,0,42.2,0,40V4
	C0,1.8,1.8,0,3.9,0z"/>
<g transform="matrix(1, 0, 0, 1, 27.009001, -39.238998)">
	<path class="st1" d="M7.6,62.2c0-0.8-0.1-1.5-0.2-2.3H-3.9v4.5h6.5c-0.3,1.5-1.1,2.7-2.4,3.6v3h3.9C6.3,68.9,7.6,65.9,7.6,62.2z"/>
	<path class="st2" d="M-3.9,73.9c3.2,0,5.9-1.1,7.9-2.9l-3.9-3C-1,68.7-2.3,69.2-4,69.2c-3.1,0-5.8-2.1-6.7-5h-4v3.1
		C-12.6,71.2-8.5,73.9-3.9,73.9z"/>
	<path class="st3" d="M-10.6,64.2c-0.2-0.7-0.4-1.5-0.4-2.3s0.1-1.6,0.4-2.3v-3.1h-4c-0.8,1.6-1.3,3.4-1.3,5.4
		c0,1.9,0.5,3.8,1.3,5.4L-10.6,64.2z"/>
	<path class="st4" d="M-3.9,54.7c1.8,0,3.3,0.6,4.6,1.8l3.4-3.4C2,51.2-0.7,50-3.9,50c-4.7,0-8.7,2.7-10.7,6.6l4,3.1
		C-9.6,56.8-7,54.7-3.9,54.7z"/>
</g>
<g>
	<path class="st5" d="M100.1,21.8v-0.3c0-3.5,2.2-4.7,4.6-4.7c1.2,0,2.1,0.3,2.6,0.5v1.5c-0.6-0.2-1.3-0.5-2.5-0.5
		c-2.1,0-2.8,1.3-2.8,3v0.4c0,1.9,0.5,3.1,2.5,3.1c0.5,0,1-0.1,1.3-0.2v-1.9h-1.6v-1.4h3.5v4.4c-0.7,0.3-1.9,0.6-3.1,0.6
		C101.9,26.4,100.1,25,100.1,21.8z"/>
	<path class="st5" d="M108.8,22.8v-0.2c0-2.3,1.4-3.6,3.4-3.6c2.2,0,3.4,1.3,3.4,3.5v0.2c0,2.3-1.4,3.6-3.4,3.6
		C110,26.3,108.8,25,108.8,22.8z M113.8,22.9v-0.3c0-1.8-0.7-2.2-1.6-2.2c-1,0-1.5,0.6-1.5,2.1v0.3c0,1.7,0.7,2.2,1.6,2.2
		S113.8,24.4,113.8,22.9z"/>
	<path class="st5" d="M116.5,22.8v-0.2c0-2.3,1.4-3.6,3.4-3.6c2.2,0,3.4,1.3,3.4,3.5v0.2c0,2.3-1.4,3.6-3.4,3.6
		C117.6,26.3,116.5,25,116.5,22.8z M121.4,22.9v-0.3c0-1.8-0.7-2.2-1.6-2.2c-1,0-1.5,0.6-1.5,2.1v0.3c0,1.7,0.7,2.2,1.6,2.2
		S121.4,24.4,121.4,22.9z"/>
	<path class="st5" d="M123.8,26.6c0-0.7,0.6-1.1,1.3-1.4v-0.1c-0.4-0.2-0.7-0.4-0.7-1c0-0.5,0.3-0.7,0.8-1.2
		c-0.6-0.3-0.9-0.8-0.9-1.7v-0.1c0-1.5,1.1-2.2,2.8-2.2c0.4,0,0.8,0,1.1,0.1h2.4v1.1h-1c0.2,0.3,0.3,0.5,0.3,0.9v0.1
		c0,1.5-1.2,2.1-2.8,2.1c-0.4,0-0.8,0-1.1-0.1c-0.1,0.1-0.2,0.2-0.2,0.3c0,0.3,0.1,0.4,0.6,0.4h1.9c1.4,0,2.3,0.5,2.3,1.8
		c0,1.4-1.1,2.3-3.6,2.3C124.8,28.2,123.8,27.6,123.8,26.6z M128.9,26.2c0-0.5-0.2-0.6-1-0.6h-1.7c-0.4,0.1-0.6,0.4-0.6,0.8
		c0,0.5,0.4,0.7,1.5,0.7C128.4,27,128.9,26.7,128.9,26.2z M128.3,21.4v-0.1c0-0.8-0.4-1-1.1-1s-1.1,0.3-1.1,1v0.2c0,0.8,0.4,1,1.1,1
		C127.8,22.4,128.3,22.1,128.3,21.4z"/>
	<path class="st5" d="M131.7,16.3h1.8v9.9h-1.8V16.3z"/>
	<path class="st5" d="M134.7,22.8v-0.2c0-2.3,1.4-3.5,3.3-3.5c2.1,0,3,1.2,3,3.4v0.6h-4.5c0.1,1.3,0.9,1.8,2.1,1.8
		c0.9,0,1.5-0.2,2.1-0.5v1.2c-0.5,0.3-1.3,0.6-2.5,0.6C135.9,26.3,134.7,25,134.7,22.8z M136.5,22h2.7c0-1.2-0.4-1.7-1.3-1.7
		C137.3,20.3,136.6,20.7,136.5,22z"/>
	<path class="st5" d="M148.1,23.2V25h4.6v1.4h-10.9V25h4.6v-1.8h-3.2v-4.1h6.4v-1.2h-6.4v-1.4h8.2v4H145v1.3h6.7v1.4
		C151.7,23.2,148.1,23.2,148.1,23.2z"/>
	<path class="st5" d="M157.8,25.4l-1.1-1.3c2.3-1.4,3.3-3.2,3.6-5.4h-2.9v-1.4h4.6C162.2,20.8,160.8,23.6,157.8,25.4z M163.3,27.3
		v-4H162v-1.5h1.3v-1.4h-1.2v-1.6h1.2V16h1.6v11.3H163.3z M165.6,27.8v-12h1.7v12H165.6z"/>
	<path class="st5" d="M168.7,22.9v-1.4h4.5V20h1.8v1.6h4.6V23h-10.9L168.7,22.9L168.7,22.9z M169.9,20.7l-0.7-1.4c2.1-0.2,4-1.3,4-3
		V16h1.8v0.3c0,1.8,1.8,2.7,4,3l-0.7,1.4c-1.7-0.2-3.6-1-4.3-2.4C173.5,19.7,171.5,20.5,169.9,20.7z M178.2,23.7v4.2h-1.8v-2.8H170
		v-1.4C170,23.7,178.2,23.7,178.2,23.7z"/>
	<path class="st5" d="M180.3,20.1v-1.4h7v1.4H180.3z M183.9,20.5c1.6,0,3,1,3,2.6s-1.3,2.6-3,2.6s-2.9-1-2.9-2.6
		C180.9,21.5,182.2,20.5,183.9,20.5z M182,16.5h3.7V18H182V16.5z M183.9,24.4c0.7,0,1.4-0.5,1.4-1.3s-0.6-1.3-1.4-1.3
		c-0.8,0-1.4,0.5-1.4,1.3C182.5,23.8,183.1,24.4,183.9,24.4z M189.9,20.7h1.6v1.5h-1.6v5.7h-1.8v-12h1.8V20.7z"/>
	<path class="st5" d="M193,25.7l-1-1.4c2.6-1.2,4.3-3.5,4.6-5.8h-3.8V17h5.7C198.4,20.5,196.9,23.6,193,25.7z M200.3,27.8v-12h1.8
		v12H200.3z"/>
</g>
</svg>
